<?xml version="1.0" encoding="UTF-8"?>
<svg xmlns="http://www.w3.org/2000/svg" viewBox="-67.92 -67.92 3531.84 2123.84" width="1400" height="841" style="background:#f8fafc">
  <defs>
    <style>text { font-family: monospace; }</style>
  </defs>
  <polygon points="2800.00,850.00 2800.00,1631.00 3008.60,1640.50 3060.21,1622.18 3055.38,1615.90 3050.47,1604.03 3048.80,1591.30 3098.00,1608.76 3147.20,1591.30 3145.50,1604.03 3140.60,1615.90 3135.77,1622.17 3187.40,1640.50 3396.00,1631.00 3396.00,850.00" fill="#2563eb" fill-opacity="0.25" stroke="#2563eb" stroke-width="0.8" stroke-linejoin="round"/>
  <rect x="2800.00" y="850.00" width="596.00" height="790.50" fill="none" stroke="#2563eb" stroke-width="0.4" stroke-dasharray="3,2" opacity="0.6"/>
  <text x="3098.00" y="1223.79" font-size="35.76" text-anchor="middle" fill="#2563eb" font-weight="bold" stroke="white" stroke-width="2.86" paint-order="stroke">#0  XXL-BACK</text>
  <text x="3098.00" y="1266.71" font-size="35.76" text-anchor="middle" fill="#2563eb" font-weight="bold" stroke="white" stroke-width="2.86" paint-order="stroke">area=464880 mm²</text>
  <polygon points="2800.00,0.00 2800.00,776.00 3005.10,795.00 3042.68,776.86 3035.00,770.98 3021.97,754.00 3013.78,734.20 3011.00,713.00 3093.00,752.58 3175.00,713.00 3172.20,734.20 3164.00,754.00 3150.97,770.98 3143.31,776.86 3180.90,795.00 3386.00,776.00 3386.00,0.00" fill="#7c3aed" fill-opacity="0.25" stroke="#7c3aed" stroke-width="0.8" stroke-linejoin="round"/>
  <rect x="2800.00" y="0.00" width="586.00" height="795.00" fill="none" stroke="#7c3aed" stroke-width="0.4" stroke-dasharray="3,2" opacity="0.6"/>
  <text x="3093.00" y="376.40" font-size="35.16" text-anchor="middle" fill="#7c3aed" font-weight="bold" stroke="white" stroke-width="2.81" paint-order="stroke">#1  XXL-FRONT</text>
  <text x="3093.00" y="418.60" font-size="35.16" text-anchor="middle" fill="#7c3aed" font-weight="bold" stroke="white" stroke-width="2.81" paint-order="stroke">area=453492 mm²</text>
  <polygon points="2100.00,850.00 2100.00,1597.00 2296.70,1606.00 2344.84,1588.67 2339.95,1582.30 2335.20,1570.85 2333.60,1558.60 2381.00,1575.66 2428.40,1558.60 2426.78,1570.85 2422.03,1582.30 2417.14,1588.67 2465.30,1606.00 2662.00,1597.00 2662.00,850.00" fill="#059669" fill-opacity="0.25" stroke="#059669" stroke-width="0.8" stroke-linejoin="round"/>
  <rect x="2100.00" y="850.00" width="562.00" height="756.00" fill="none" stroke="#059669" stroke-width="0.4" stroke-dasharray="3,2" opacity="0.6"/>
  <text x="2381.00" y="1207.77" font-size="33.72" text-anchor="middle" fill="#059669" font-weight="bold" stroke="white" stroke-width="2.70" paint-order="stroke">#2  XL-BACK</text>
  <text x="2381.00" y="1248.23" font-size="33.72" text-anchor="middle" fill="#059669" font-weight="bold" stroke="white" stroke-width="2.70" paint-order="stroke">area=419196 mm²</text>
  <polygon points="2100.00,0.00 2100.00,742.00 2293.20,760.00 2328.10,742.96 2320.12,736.85 2307.57,720.50 2299.68,701.42 2297.00,681.00 2376.00,719.57 2455.00,681.00 2452.30,701.42 2444.40,720.50 2431.85,736.85 2423.89,742.96 2458.80,760.00 2652.00,742.00 2652.00,0.00" fill="#d97706" fill-opacity="0.25" stroke="#d97706" stroke-width="0.8" stroke-linejoin="round"/>
  <rect x="2100.00" y="0.00" width="552.00" height="760.00" fill="none" stroke="#d97706" stroke-width="0.4" stroke-dasharray="3,2" opacity="0.6"/>
  <text x="2376.00" y="360.13" font-size="33.12" text-anchor="middle" fill="#d97706" font-weight="bold" stroke="white" stroke-width="2.65" paint-order="stroke">#3  XL-FRONT</text>
  <text x="2376.00" y="399.87" font-size="33.12" text-anchor="middle" fill="#d97706" font-weight="bold" stroke="white" stroke-width="2.65" paint-order="stroke">area=408264 mm²</text>
  <polygon points="1400.00,850.00 1400.00,1565.00 1585.50,1573.50 1630.44,1557.12 1625.50,1550.67 1620.95,1539.70 1619.40,1527.90 1665.00,1544.52 1710.60,1527.90 1709.03,1539.70 1704.47,1550.67 1699.54,1557.11 1744.50,1573.50 1930.00,1565.00 1930.00,850.00" fill="#dc2626" fill-opacity="0.25" stroke="#dc2626" stroke-width="0.8" stroke-linejoin="round"/>
  <rect x="1400.00" y="850.00" width="530.00" height="723.50" fill="none" stroke="#dc2626" stroke-width="0.4" stroke-dasharray="3,2" opacity="0.6"/>
  <text x="1665.00" y="1192.67" font-size="31.80" text-anchor="middle" fill="#dc2626" font-weight="bold" stroke="white" stroke-width="2.54" paint-order="stroke">#4  L-BACK</text>
  <text x="1665.00" y="1230.83" font-size="31.80" text-anchor="middle" fill="#dc2626" font-weight="bold" stroke="white" stroke-width="2.54" paint-order="stroke">area=378316 mm²</text>
  <polygon points="1400.00,0.00 1400.00,710.00 1582.00,727.00 1614.43,711.00 1606.25,704.73 1594.17,689.00 1586.58,670.65 1584.00,651.00 1660.00,688.51 1736.00,651.00 1733.40,670.65 1725.80,689.00 1713.72,704.73 1705.56,710.99 1738.00,727.00 1920.00,710.00 1920.00,0.00" fill="#0891b2" fill-opacity="0.25" stroke="#0891b2" stroke-width="0.8" stroke-linejoin="round"/>
  <rect x="1400.00" y="0.00" width="520.00" height="727.00" fill="none" stroke="#0891b2" stroke-width="0.4" stroke-dasharray="3,2" opacity="0.6"/>
  <text x="1660.00" y="344.78" font-size="31.20" text-anchor="middle" fill="#0891b2" font-weight="bold" stroke="white" stroke-width="2.50" paint-order="stroke">#5  L-FRONT</text>
  <text x="1660.00" y="382.22" font-size="31.20" text-anchor="middle" fill="#0891b2" font-weight="bold" stroke="white" stroke-width="2.50" paint-order="stroke">area=367825 mm²</text>
  <polygon points="700.00,850.00 700.00,1535.00 875.00,1543.00 917.00,1527.52 912.05,1521.10 907.67,1510.53 906.20,1499.20 950.00,1515.35 993.80,1499.20 992.30,1510.53 987.92,1521.10 982.99,1527.51 1025.00,1543.00 1200.00,1535.00 1200.00,850.00" fill="#65a30d" fill-opacity="0.25" stroke="#65a30d" stroke-width="0.8" stroke-linejoin="round"/>
  <rect x="700.00" y="850.00" width="500.00" height="693.00" fill="none" stroke="#65a30d" stroke-width="0.4" stroke-dasharray="3,2" opacity="0.6"/>
  <text x="950.00" y="1178.50" font-size="30.00" text-anchor="middle" fill="#65a30d" font-weight="bold" stroke="white" stroke-width="2.40" paint-order="stroke">#6  M-BACK</text>
  <text x="950.00" y="1214.50" font-size="30.00" text-anchor="middle" fill="#65a30d" font-weight="bold" stroke="white" stroke-width="2.40" paint-order="stroke">area=341856 mm²</text>
  <polygon points="700.00,0.00 700.00,680.00 871.50,696.00 901.67,680.96 893.38,674.60 881.77,659.50 874.48,641.88 872.00,623.00 945.00,659.38 1018.00,623.00 1015.50,641.88 1008.20,659.50 996.60,674.60 988.32,680.96 1018.50,696.00 1190.00,680.00 1190.00,0.00" fill="#9333ea" fill-opacity="0.25" stroke="#9333ea" stroke-width="0.8" stroke-linejoin="round"/>
  <rect x="700.00" y="0.00" width="490.00" height="696.00" fill="none" stroke="#9333ea" stroke-width="0.4" stroke-dasharray="3,2" opacity="0.6"/>
  <text x="945.00" y="330.36" font-size="29.40" text-anchor="middle" fill="#9333ea" font-weight="bold" stroke="white" stroke-width="2.35" paint-order="stroke">#7  M-FRONT</text>
  <text x="945.00" y="365.64" font-size="29.40" text-anchor="middle" fill="#9333ea" font-weight="bold" stroke="white" stroke-width="2.35" paint-order="stroke">area=331791 mm²</text>
  <polygon points="0.00,850.00 0.00,1505.00 164.50,1512.50 203.56,1497.92 198.62,1491.50 194.43,1481.35 193.00,1470.50 235.00,1486.18 277.00,1470.50 275.55,1481.35 271.35,1491.50 266.42,1497.91 305.50,1512.50 470.00,1505.00 470.00,850.00" fill="#db2777" fill-opacity="0.25" stroke="#db2777" stroke-width="0.8" stroke-linejoin="round"/>
  <rect x="0.00" y="850.00" width="470.00" height="662.50" fill="none" stroke="#db2777" stroke-width="0.4" stroke-dasharray="3,2" opacity="0.6"/>
  <text x="235.00" y="1164.33" font-size="28.20" text-anchor="middle" fill="#db2777" font-weight="bold" stroke="white" stroke-width="2.26" paint-order="stroke">#8  S-BACK</text>
  <text x="235.00" y="1198.17" font-size="28.20" text-anchor="middle" fill="#db2777" font-weight="bold" stroke="white" stroke-width="2.26" paint-order="stroke">area=307202 mm²</text>
  <polygon points="0.00,0.00 0.00,650.00 161.00,665.00 188.92,650.94 180.50,644.48 169.38,630.00 162.38,613.10 160.00,595.00 230.00,630.25 300.00,595.00 297.60,613.10 290.60,630.00 279.48,644.48 271.07,650.93 299.00,665.00 460.00,650.00 460.00,0.00" fill="#ea580c" fill-opacity="0.25" stroke="#ea580c" stroke-width="0.8" stroke-linejoin="round"/>
  <rect x="0.00" y="0.00" width="460.00" height="665.00" fill="none" stroke="#ea580c" stroke-width="0.4" stroke-dasharray="3,2" opacity="0.6"/>
  <text x="230.00" y="315.94" font-size="27.60" text-anchor="middle" fill="#ea580c" font-weight="bold" stroke="white" stroke-width="2.21" paint-order="stroke">#9  S-FRONT</text>
  <text x="230.00" y="349.06" font-size="27.60" text-anchor="middle" fill="#ea580c" font-weight="bold" stroke="white" stroke-width="2.21" paint-order="stroke">area=297568 mm²</text>
  <polygon points="2822.00,1700.00 2985.00,1700.00 3007.00,1940.00 3007.00,1988.00 3005.00,1978.62 2999.10,1969.62 2989.55,1961.33 2976.68,1954.05 2961.00,1948.08 2943.10,1943.65 2923.68,1940.90 2903.50,1940.00 2883.30,1940.90 2863.88,1943.65 2845.97,1948.08 2830.30,1954.05 2817.43,1961.33 2807.88,1969.62 2801.97,1978.62 2800.00,1988.00 2800.00,1940.00" fill="#16a34a" fill-opacity="0.25" stroke="#16a34a" stroke-width="0.8" stroke-linejoin="round"/>
  <rect x="2800.00" y="1700.00" width="207.00" height="288.00" fill="none" stroke="#16a34a" stroke-width="0.4" stroke-dasharray="3,2" opacity="0.6"/>
  <text x="2903.50" y="1836.55" font-size="12.42" text-anchor="middle" fill="#16a34a" font-weight="bold" stroke="white" stroke-width="0.99" paint-order="stroke">#10  XXL-LEFT_SLEEVE</text>
  <text x="2903.50" y="1851.45" font-size="12.42" text-anchor="middle" fill="#16a34a" font-weight="bold" stroke="white" stroke-width="0.99" paint-order="stroke">area=46580 mm²</text>
  <polygon points="3233.40,1700.00 3070.40,1700.00 3048.40,1940.00 3048.40,1988.00 3050.38,1978.62 3056.28,1969.62 3065.82,1961.33 3078.70,1954.05 3094.38,1948.08 3112.28,1943.65 3131.70,1940.90 3151.90,1940.00 3172.07,1940.90 3191.50,1943.65 3209.40,1948.08 3225.07,1954.05 3237.95,1961.33 3247.50,1969.62 3253.40,1978.62 3255.40,1988.00 3255.40,1940.00" fill="#1d4ed8" fill-opacity="0.25" stroke="#1d4ed8" stroke-width="0.8" stroke-linejoin="round"/>
  <rect x="3048.40" y="1700.00" width="207.00" height="288.00" fill="none" stroke="#1d4ed8" stroke-width="0.4" stroke-dasharray="3,2" opacity="0.6"/>
  <text x="3151.90" y="1836.55" font-size="12.42" text-anchor="middle" fill="#1d4ed8" font-weight="bold" stroke="white" stroke-width="0.99" paint-order="stroke">#11  XXL-RIGHT_SLEEVE</text>
  <text x="3151.90" y="1851.45" font-size="12.42" text-anchor="middle" fill="#1d4ed8" font-weight="bold" stroke="white" stroke-width="0.99" paint-order="stroke">area=46580 mm²</text>
  <polygon points="2120.50,1700.00 2274.50,1700.00 2295.00,1930.00 2295.00,1976.00 2293.12,1967.03 2287.57,1958.38 2278.55,1950.42 2266.43,1943.45 2251.65,1937.75 2234.80,1933.50 2216.50,1930.88 2197.50,1930.00 2178.47,1930.88 2160.18,1933.50 2143.32,1937.75 2128.55,1943.45 2116.43,1950.42 2107.40,1958.38 2101.85,1967.03 2100.00,1976.00 2100.00,1930.00" fill="#2563eb" fill-opacity="0.25" stroke="#2563eb" stroke-width="0.8" stroke-linejoin="round"/>
  <rect x="2100.00" y="1700.00" width="195.00" height="276.00" fill="none" stroke="#2563eb" stroke-width="0.4" stroke-dasharray="3,2" opacity="0.6"/>
  <text x="2197.50" y="1830.98" font-size="11.70" text-anchor="middle" fill="#2563eb" font-weight="bold" stroke="white" stroke-width="0.94" paint-order="stroke">#12  XL-LEFT_SLEEVE</text>
  <text x="2197.50" y="1845.02" font-size="11.70" text-anchor="middle" fill="#2563eb" font-weight="bold" stroke="white" stroke-width="0.94" paint-order="stroke">area=42103 mm²</text>
  <polygon points="2508.50,1700.00 2354.50,1700.00 2334.00,1930.00 2334.00,1976.00 2335.85,1967.03 2341.40,1958.38 2350.43,1950.42 2362.55,1943.45 2377.32,1937.75 2394.18,1933.50 2412.47,1930.88 2431.50,1930.00 2450.50,1930.88 2468.80,1933.50 2485.65,1937.75 2500.43,1943.45 2512.55,1950.42 2521.57,1958.38 2527.12,1967.03 2529.00,1976.00 2529.00,1930.00" fill="#7c3aed" fill-opacity="0.25" stroke="#7c3aed" stroke-width="0.8" stroke-linejoin="round"/>
  <rect x="2334.00" y="1700.00" width="195.00" height="276.00" fill="none" stroke="#7c3aed" stroke-width="0.4" stroke-dasharray="3,2" opacity="0.6"/>
  <text x="2431.50" y="1830.98" font-size="11.70" text-anchor="middle" fill="#7c3aed" font-weight="bold" stroke="white" stroke-width="0.94" paint-order="stroke">#13  XL-RIGHT_SLEEVE</text>
  <text x="2431.50" y="1845.02" font-size="11.70" text-anchor="middle" fill="#7c3aed" font-weight="bold" stroke="white" stroke-width="0.94" paint-order="stroke">area=42103 mm²</text>
  <polygon points="1419.50,1700.00 1565.50,1700.00 1585.00,1920.00 1585.00,1964.00 1583.20,1955.40 1577.95,1947.15 1569.40,1939.55 1557.90,1932.88 1543.88,1927.40 1527.88,1923.33 1510.53,1920.83 1492.50,1920.00 1474.45,1920.83 1457.10,1923.33 1441.10,1927.40 1427.08,1932.88 1415.58,1939.55 1407.03,1947.15 1401.78,1955.40 1400.00,1964.00 1400.00,1920.00" fill="#059669" fill-opacity="0.25" stroke="#059669" stroke-width="0.8" stroke-linejoin="round"/>
  <rect x="1400.00" y="1700.00" width="185.00" height="264.00" fill="none" stroke="#059669" stroke-width="0.4" stroke-dasharray="3,2" opacity="0.6"/>
  <text x="1492.50" y="1825.34" font-size="11.10" text-anchor="middle" fill="#059669" font-weight="bold" stroke="white" stroke-width="0.89" paint-order="stroke">#14  L-LEFT_SLEEVE</text>
  <text x="1492.50" y="1838.66" font-size="11.10" text-anchor="middle" fill="#059669" font-weight="bold" stroke="white" stroke-width="0.89" paint-order="stroke">area=38195 mm²</text>
  <polygon points="1787.50,1700.00 1641.50,1700.00 1622.00,1920.00 1622.00,1964.00 1623.78,1955.40 1629.03,1947.15 1637.58,1939.55 1649.08,1932.88 1663.10,1927.40 1679.10,1923.33 1696.45,1920.83 1714.50,1920.00 1732.53,1920.83 1749.88,1923.33 1765.88,1927.40 1779.90,1932.88 1791.40,1939.55 1799.95,1947.15 1805.20,1955.40 1807.00,1964.00 1807.00,1920.00" fill="#d97706" fill-opacity="0.25" stroke="#d97706" stroke-width="0.8" stroke-linejoin="round"/>
  <rect x="1622.00" y="1700.00" width="185.00" height="264.00" fill="none" stroke="#d97706" stroke-width="0.4" stroke-dasharray="3,2" opacity="0.6"/>
  <text x="1714.50" y="1825.34" font-size="11.10" text-anchor="middle" fill="#d97706" font-weight="bold" stroke="white" stroke-width="0.89" paint-order="stroke">#15  L-RIGHT_SLEEVE</text>
  <text x="1714.50" y="1838.66" font-size="11.10" text-anchor="middle" fill="#d97706" font-weight="bold" stroke="white" stroke-width="0.89" paint-order="stroke">area=38195 mm²</text>
  <polygon points="718.50,1700.00 856.50,1700.00 875.00,1910.00 875.00,1952.00 873.30,1943.80 868.33,1935.92 860.25,1928.65 849.35,1922.30 836.10,1917.08 820.98,1913.17 804.55,1910.80 787.50,1910.00 770.42,1910.80 754.00,1913.17 738.88,1917.08 725.62,1922.30 714.73,1928.65 706.65,1935.92 701.67,1943.80 700.00,1952.00 700.00,1910.00" fill="#dc2626" fill-opacity="0.25" stroke="#dc2626" stroke-width="0.8" stroke-linejoin="round"/>
  <rect x="700.00" y="1700.00" width="175.00" height="252.00" fill="none" stroke="#dc2626" stroke-width="0.4" stroke-dasharray="3,2" opacity="0.6"/>
  <text x="787.50" y="1819.70" font-size="10.50" text-anchor="middle" fill="#dc2626" font-weight="bold" stroke="white" stroke-width="0.84" paint-order="stroke">#16  M-LEFT_SLEEVE</text>
  <text x="787.50" y="1832.30" font-size="10.50" text-anchor="middle" fill="#dc2626" font-weight="bold" stroke="white" stroke-width="0.84" paint-order="stroke">area=34478 mm²</text>
  <polygon points="1066.50,1700.00 928.50,1700.00 910.00,1910.00 910.00,1952.00 911.67,1943.80 916.65,1935.92 924.73,1928.65 935.62,1922.30 948.88,1917.08 964.00,1913.17 980.42,1910.80 997.50,1910.00 1014.55,1910.80 1030.97,1913.17 1046.10,1917.08 1059.35,1922.30 1070.25,1928.65 1078.33,1935.92 1083.30,1943.80 1085.00,1952.00 1085.00,1910.00" fill="#0891b2" fill-opacity="0.25" stroke="#0891b2" stroke-width="0.8" stroke-linejoin="round"/>
  <rect x="910.00" y="1700.00" width="175.00" height="252.00" fill="none" stroke="#0891b2" stroke-width="0.4" stroke-dasharray="3,2" opacity="0.6"/>
  <text x="997.50" y="1819.70" font-size="10.50" text-anchor="middle" fill="#0891b2" font-weight="bold" stroke="white" stroke-width="0.84" paint-order="stroke">#17  M-RIGHT_SLEEVE</text>
  <text x="997.50" y="1832.30" font-size="10.50" text-anchor="middle" fill="#0891b2" font-weight="bold" stroke="white" stroke-width="0.84" paint-order="stroke">area=34478 mm²</text>
  <polygon points="345.50,1700.00 215.50,1700.00 198.00,1900.00 198.00,1940.00 199.57,1932.17 204.28,1924.67 211.90,1917.78 222.15,1911.70 234.65,1906.72 248.93,1903.03 264.40,1900.75 280.50,1900.00 296.57,1900.75 312.05,1903.03 326.32,1906.72 338.82,1911.70 349.07,1917.78 356.70,1924.67 361.40,1932.17 363.00,1940.00 363.00,1900.00" fill="#65a30d" fill-opacity="0.25" stroke="#65a30d" stroke-width="0.8" stroke-linejoin="round"/>
  <rect x="198.00" y="1700.00" width="165.00" height="240.00" fill="none" stroke="#65a30d" stroke-width="0.4" stroke-dasharray="3,2" opacity="0.6"/>
  <text x="280.50" y="1814.06" font-size="9.90" text-anchor="middle" fill="#65a30d" font-weight="bold" stroke="white" stroke-width="0.79" paint-order="stroke">#18  S-RIGHT_SLEEVE</text>
  <text x="280.50" y="1825.94" font-size="9.90" text-anchor="middle" fill="#65a30d" font-weight="bold" stroke="white" stroke-width="0.79" paint-order="stroke">area=30948 mm²</text>
  <polygon points="17.50,1700.00 147.50,1700.00 165.00,1900.00 165.00,1940.00 163.40,1932.17 158.70,1924.67 151.07,1917.78 140.82,1911.70 128.32,1906.72 114.05,1903.03 98.58,1900.75 82.50,1900.00 66.40,1900.75 50.92,1903.03 36.65,1906.72 24.15,1911.70 13.90,1917.78 6.28,1924.67 1.57,1932.17 0.00,1940.00 0.00,1900.00" fill="#9333ea" fill-opacity="0.25" stroke="#9333ea" stroke-width="0.8" stroke-linejoin="round"/>
  <rect x="0.00" y="1700.00" width="165.00" height="240.00" fill="none" stroke="#9333ea" stroke-width="0.4" stroke-dasharray="3,2" opacity="0.6"/>
  <text x="82.50" y="1814.06" font-size="9.90" text-anchor="middle" fill="#9333ea" font-weight="bold" stroke="white" stroke-width="0.79" paint-order="stroke">#19  S-LEFT_SLEEVE</text>
  <text x="82.50" y="1825.94" font-size="9.90" text-anchor="middle" fill="#9333ea" font-weight="bold" stroke="white" stroke-width="0.79" paint-order="stroke">area=30948 mm²</text>
</svg>